<mxfile host="app.diagrams.net" modified="2023-10-24T15:33:20.463Z" agent="Mozilla/5.0 (Windows NT 10.0; Win64; x64) AppleWebKit/537.36 (KHTML, like Gecko) Chrome/118.0.0.0 Safari/537.36" etag="nvOVdHpp7YDSzNmLEolP" version="22.0.6" type="github">
  <diagram name="Trang-1" id="eha8eHS7lt4-6JDBcvAH">
    <mxGraphModel dx="2368" dy="614" grid="1" gridSize="10" guides="1" tooltips="1" connect="1" arrows="1" fold="1" page="1" pageScale="1" pageWidth="850" pageHeight="1100" math="0" shadow="0">
      <root>
        <mxCell id="0" />
        <mxCell id="1" parent="0" />
        <mxCell id="GhQqplAyv9QA9EZG3eCR-20" style="edgeStyle=orthogonalEdgeStyle;rounded=0;orthogonalLoop=1;jettySize=auto;html=1;entryX=0.5;entryY=0;entryDx=0;entryDy=0;" edge="1" parent="1" source="GhQqplAyv9QA9EZG3eCR-1" target="GhQqplAyv9QA9EZG3eCR-2">
          <mxGeometry relative="1" as="geometry" />
        </mxCell>
        <mxCell id="GhQqplAyv9QA9EZG3eCR-21" style="edgeStyle=orthogonalEdgeStyle;rounded=0;orthogonalLoop=1;jettySize=auto;html=1;entryX=0.5;entryY=0;entryDx=0;entryDy=0;" edge="1" parent="1" source="GhQqplAyv9QA9EZG3eCR-1" target="GhQqplAyv9QA9EZG3eCR-4">
          <mxGeometry relative="1" as="geometry" />
        </mxCell>
        <mxCell id="GhQqplAyv9QA9EZG3eCR-22" style="edgeStyle=orthogonalEdgeStyle;rounded=0;orthogonalLoop=1;jettySize=auto;html=1;entryX=0.5;entryY=0;entryDx=0;entryDy=0;" edge="1" parent="1" source="GhQqplAyv9QA9EZG3eCR-1" target="GhQqplAyv9QA9EZG3eCR-5">
          <mxGeometry relative="1" as="geometry" />
        </mxCell>
        <mxCell id="GhQqplAyv9QA9EZG3eCR-1" value="Page" style="rounded=0;whiteSpace=wrap;html=1;" vertex="1" parent="1">
          <mxGeometry x="200" y="30" width="120" height="60" as="geometry" />
        </mxCell>
        <mxCell id="GhQqplAyv9QA9EZG3eCR-12" style="edgeStyle=orthogonalEdgeStyle;rounded=0;orthogonalLoop=1;jettySize=auto;html=1;entryX=0.5;entryY=0;entryDx=0;entryDy=0;" edge="1" parent="1" source="GhQqplAyv9QA9EZG3eCR-2" target="GhQqplAyv9QA9EZG3eCR-9">
          <mxGeometry relative="1" as="geometry" />
        </mxCell>
        <mxCell id="GhQqplAyv9QA9EZG3eCR-13" style="edgeStyle=orthogonalEdgeStyle;rounded=0;orthogonalLoop=1;jettySize=auto;html=1;" edge="1" parent="1" source="GhQqplAyv9QA9EZG3eCR-2" target="GhQqplAyv9QA9EZG3eCR-8">
          <mxGeometry relative="1" as="geometry" />
        </mxCell>
        <mxCell id="GhQqplAyv9QA9EZG3eCR-25" style="edgeStyle=orthogonalEdgeStyle;rounded=0;orthogonalLoop=1;jettySize=auto;html=1;entryX=0.5;entryY=0;entryDx=0;entryDy=0;" edge="1" parent="1" source="GhQqplAyv9QA9EZG3eCR-2" target="GhQqplAyv9QA9EZG3eCR-24">
          <mxGeometry relative="1" as="geometry" />
        </mxCell>
        <mxCell id="GhQqplAyv9QA9EZG3eCR-2" value="Home" style="rounded=0;whiteSpace=wrap;html=1;" vertex="1" parent="1">
          <mxGeometry x="-30" y="150" width="120" height="60" as="geometry" />
        </mxCell>
        <mxCell id="GhQqplAyv9QA9EZG3eCR-26" style="edgeStyle=orthogonalEdgeStyle;rounded=0;orthogonalLoop=1;jettySize=auto;html=1;" edge="1" parent="1" source="GhQqplAyv9QA9EZG3eCR-3" target="GhQqplAyv9QA9EZG3eCR-7">
          <mxGeometry relative="1" as="geometry" />
        </mxCell>
        <mxCell id="GhQqplAyv9QA9EZG3eCR-3" value="Film" style="rounded=0;whiteSpace=wrap;html=1;" vertex="1" parent="1">
          <mxGeometry x="-270" y="360" width="120" height="60" as="geometry" />
        </mxCell>
        <mxCell id="GhQqplAyv9QA9EZG3eCR-4" value="Event" style="rounded=0;whiteSpace=wrap;html=1;" vertex="1" parent="1">
          <mxGeometry x="370" y="160" width="120" height="60" as="geometry" />
        </mxCell>
        <mxCell id="GhQqplAyv9QA9EZG3eCR-5" value="About" style="rounded=0;whiteSpace=wrap;html=1;" vertex="1" parent="1">
          <mxGeometry x="570" y="160" width="120" height="60" as="geometry" />
        </mxCell>
        <mxCell id="GhQqplAyv9QA9EZG3eCR-7" value="Buy Ticket" style="rounded=0;whiteSpace=wrap;html=1;" vertex="1" parent="1">
          <mxGeometry x="-270" y="470" width="120" height="60" as="geometry" />
        </mxCell>
        <mxCell id="GhQqplAyv9QA9EZG3eCR-8" value="Advertising" style="rounded=0;whiteSpace=wrap;html=1;" vertex="1" parent="1">
          <mxGeometry x="-30" y="250" width="120" height="60" as="geometry" />
        </mxCell>
        <mxCell id="GhQqplAyv9QA9EZG3eCR-17" style="edgeStyle=orthogonalEdgeStyle;rounded=0;orthogonalLoop=1;jettySize=auto;html=1;exitX=0.5;exitY=1;exitDx=0;exitDy=0;entryX=0.5;entryY=0;entryDx=0;entryDy=0;" edge="1" parent="1" source="GhQqplAyv9QA9EZG3eCR-9" target="GhQqplAyv9QA9EZG3eCR-3">
          <mxGeometry relative="1" as="geometry" />
        </mxCell>
        <mxCell id="GhQqplAyv9QA9EZG3eCR-9" value="Flims List" style="rounded=0;whiteSpace=wrap;html=1;" vertex="1" parent="1">
          <mxGeometry x="-270" y="250" width="120" height="60" as="geometry" />
        </mxCell>
        <mxCell id="GhQqplAyv9QA9EZG3eCR-24" value="Login - Sign Up" style="rounded=0;whiteSpace=wrap;html=1;" vertex="1" parent="1">
          <mxGeometry x="180" y="250" width="120" height="60" as="geometry" />
        </mxCell>
      </root>
    </mxGraphModel>
  </diagram>
</mxfile>
